<mxfile host="app.diagrams.net" modified="2023-04-29T01:31:44.504Z" agent="Mozilla/5.0 (Macintosh; Intel Mac OS X 10_15_7) AppleWebKit/537.36 (KHTML, like Gecko) Chrome/112.0.0.0 Safari/537.36" etag="_EFJX0DOaZsYusabaedz" version="21.2.3" type="github">
  <diagram id="3228e29e-7158-1315-38df-8450db1d8a1d" name="Page-1">
    <mxGraphModel dx="1306" dy="409" grid="0" gridSize="10" guides="1" tooltips="1" connect="1" arrows="1" fold="1" page="1" pageScale="1" pageWidth="550" pageHeight="180" background="#EFF1F3" math="0" shadow="0">
      <root>
        <mxCell id="0" />
        <mxCell id="1" parent="0" />
        <mxCell id="LvesvwtV2vatUiFBe1HR-21533" value="" style="shape=image;verticalLabelPosition=bottom;verticalAlign=top;imageAspect=0;aspect=fixed;image=data:image/svg+xml,PHN2ZyB4bWxuczp4bGluaz0iaHR0cDovL3d3dy53My5vcmcvMTk5OS94bGluayIgeG1sbnM9Imh0dHA6Ly93d3cudzMub3JnLzIwMDAvc3ZnIiBoZWlnaHQ9IjIwMCIgd2lkdGg9IjIwMCIgdmVyc2lvbj0iMS4xIiB2aWV3Qm94PSIwIDAgMTAyNCAxMDI0IiBjbGFzcz0iaWNvbiI+PGRlZnM+PHN0eWxlIHR5cGU9InRleHQvY3NzIj5AZm9udC1mYWNlIHsgZm9udC1mYW1pbHk6IGZlZWRiYWNrLWljb25mb250OyBzcmM6IHVybCgiLy9hdC5hbGljZG4uY29tL3QvZm9udF8xMDMxMTU4X3U2OXc4eWh4ZHUud29mZjI/dD0xNjMwMDMzNzU5OTQ0IikgZm9ybWF0KCJ3b2ZmMiIpLCB1cmwoIi8vYXQuYWxpY2RuLmNvbS90L2ZvbnRfMTAzMTE1OF91Njl3OHloeGR1LndvZmY/dD0xNjMwMDMzNzU5OTQ0IikgZm9ybWF0KCJ3b2ZmIiksIHVybCgiLy9hdC5hbGljZG4uY29tL3QvZm9udF8xMDMxMTU4X3U2OXc4eWh4ZHUudHRmP3Q9MTYzMDAzMzc1OTk0NCIpIGZvcm1hdCgidHJ1ZXR5cGUiKTsgfSYjeGE7PC9zdHlsZT48L2RlZnM+PHBhdGggZmlsbD0iIzRBOTE5QiIgZD0iTTg0Mi4zOTQ1OTUgNzk5LjczMzIzNyA2NDAuOTczMDc2IDc5OS43MzMyMzcgNjQwLjk3MzA3NiA5MTQuODI1NTA4bDU3LjU0OTAwNSAwYzE1LjkwMzg1MyAwIDI4Ljc3NDUwMyAxMi44NjkwOTkgMjguNzc0NTAzIDI4Ljc3MzMyNCAwIDE1LjkwMzIwMi0xMi44NzA2NDkgMjguNzcyMy0yOC43NzQ1MDMgMjguNzcyM0wzNTMuMjI4MDUgOTcyLjM3MTEzMmMtMTUuOTA0ODc3IDAtMjguNzc0NTAzLTEyLjg2OTA5OS0yOC43NzQ1MDMtMjguNzcyMyAwLTE1LjkwNDIyNSAxMi44Njk2MjYtMjguNzczMzI0IDI4Ljc3NDUwMy0yOC43NzMzMjRsNTcuNTQ5MDA1IDBMNDEwLjc3NzA1NSA3OTkuNzMzMjM3IDE4MC41ODEwMzQgNzk5LjczMzIzN2MtNjMuNTYyMTk5IDAtMTE1LjA5ODAxMS01MS41MzM3LTExNS4wOTgwMTEtMTE1LjA5MzI5NUw2NS40ODMwMjMgMTY2LjcyMDExNmMwLTYzLjU1OTU5NSA1MS41MzU4MTItMTE1LjA5MzI5NSAxMTUuMDk4MDExLTExNS4wOTMyOTVsNjYxLjgxMjUzNyAwYzYzLjU2MTE3NiAwIDExNS4wOTgwMTEgNTEuNTMzNyAxMTUuMDk4MDExIDExNS4wOTMyOTVsMCA1MTcuOTE5ODI2Qzk1Ny40OTE1ODIgNzQ4LjE5ODUxMyA5MDUuOTU1NzcgNzk5LjczMzIzNyA4NDIuMzk0NTk1IDc5OS43MzMyMzd6TTU4My40MjQwNzEgOTE0LjgyNTUwOCA1ODMuNDI0MDcxIDc5OS43MzMyMzcgNDY4LjMyNjA2IDc5OS43MzMyMzcgNDY4LjMyNjA2IDkxNC44MjU1MDggNTgzLjQyNDA3MSA5MTQuODI1NTA4ek04OTkuOTQyNTc3IDE2Ni43MjAxMTZjMC0zMS43Nzk3OTctMjUuNzY3OTA2LTU3LjU0NjY0Ny01Ny41NDc5ODItNTcuNTQ2NjQ3TDE4MC41ODEwMzQgMTA5LjE3MzQ2OGMtMzEuNzgxMDk5IDAtNTcuNTQ5MDA1IDI1Ljc2Njg1LTU3LjU0OTAwNSA1Ny41NDY2NDdsMCA0MDIuODI2NTMyTDg5OS45NDI1NzcgNTY5LjU0NjY0NyA4OTkuOTQyNTc3IDE2Ni43MjAxMTZ6TTg5OS45NDI1NzcgNjI3LjA5MzI5NSAxMjMuMDMzMDUyIDYyNy4wOTMyOTVsMCA1Ny41NDY2NDdjMCAzMS43Nzk3OTcgMjUuNzY3OTA2IDU3LjU0NTYyNCA1Ny41NDkwMDUgNTcuNTQ1NjI0bDY2MS44MTI1MzcgMGMzMS43ODEwOTkgMCA1Ny41NDc5ODItMjUuNzY2ODUgNTcuNTQ3OTgyLTU3LjU0NTYyNEw4OTkuOTQyNTc3IDYyNy4wOTMyOTV6Ii8+PC9zdmc+" parent="1" vertex="1">
          <mxGeometry x="27.120000000000005" y="464.69" width="40" height="40" as="geometry" />
        </mxCell>
        <mxCell id="LvesvwtV2vatUiFBe1HR-21534" value="" style="shape=image;verticalLabelPosition=bottom;verticalAlign=top;imageAspect=0;aspect=fixed;image=data:image/svg+xml,PHN2ZyB4bWxuczp4bGluaz0iaHR0cDovL3d3dy53My5vcmcvMTk5OS94bGluayIgeG1sbnM9Imh0dHA6Ly93d3cudzMub3JnLzIwMDAvc3ZnIiBoZWlnaHQ9IjIwMCIgd2lkdGg9IjIwMCIgdmVyc2lvbj0iMS4xIiB2aWV3Qm94PSIwIDAgMTAyNCAxMDI0IiBjbGFzcz0iaWNvbiI+PGRlZnM+PHN0eWxlIHR5cGU9InRleHQvY3NzIj5AZm9udC1mYWNlIHsgZm9udC1mYW1pbHk6IGZlZWRiYWNrLWljb25mb250OyBzcmM6IHVybCgiLy9hdC5hbGljZG4uY29tL3QvZm9udF8xMDMxMTU4X3U2OXc4eWh4ZHUud29mZjI/dD0xNjMwMDMzNzU5OTQ0IikgZm9ybWF0KCJ3b2ZmMiIpLCB1cmwoIi8vYXQuYWxpY2RuLmNvbS90L2ZvbnRfMTAzMTE1OF91Njl3OHloeGR1LndvZmY/dD0xNjMwMDMzNzU5OTQ0IikgZm9ybWF0KCJ3b2ZmIiksIHVybCgiLy9hdC5hbGljZG4uY29tL3QvZm9udF8xMDMxMTU4X3U2OXc4eWh4ZHUudHRmP3Q9MTYzMDAzMzc1OTk0NCIpIGZvcm1hdCgidHJ1ZXR5cGUiKTsgfSYjeGE7PC9zdHlsZT48L2RlZnM+PHBhdGggZmlsbD0iIzRBOTE5QiIgZD0iTTAgNzI4djEzNmMwIDM1LjMgMjguNyA2NCA2NCA2NGg4OTZjMzUuMyAwIDY0LTI4LjcgNjQtNjRWNzI4YzAtNC40LTMuNi04LTgtOEg4Yy00LjQgMC04IDMuNi04IDh6IG03NzQgOTZjMCA0LjQtMy42IDgtOCA4SDQyNGMtNC40IDAtOC0zLjYtOC04di00OGMwLTQuNCAzLjYtOCA4LThoMzQyYzQuNCAwIDggMy42IDggOHY0OHogbTEyMiAwYzAgNC40LTMuNiA4LTggOGgtNDhjLTQuNCAwLTgtMy42LTgtOHYtNDhjMC00LjQgMy42LTggOC04aDQ4YzQuNCAwIDggMy42IDggOHY0OHpNMCA1MzZ2MTQ0YzAgNC40IDMuNiA4IDggOGgxMDA4YzQuNCAwIDgtMy42IDgtOFY1MzZjMC00LjQtMy42LTgtOC04SDhjLTQuNCAwLTggMy42LTggOHogbTc3NCA5NmMwIDQuNC0zLjYgOC04IDhINDI0Yy00LjQgMC04LTMuNi04LTh2LTQ4YzAtNC40IDMuNi04IDgtOGgzNDJjNC40IDAgOCAzLjYgOCA4djQ4eiBtMTIyIDBjMCA0LjQtMy42IDgtOCA4aC00OGMtNC40IDAtOC0zLjYtOC04di00OGMwLTQuNCAzLjYtOCA4LThoNDhjNC40IDAgOCAzLjYgOCA4djQ4ek0wIDM0NHYxNDRjMCA0LjQgMy42IDggOCA4aDEwMDhjNC40IDAgOC0zLjYgOC04VjM0NGMwLTQuNC0zLjYtOC04LThIOGMtNC40IDAtOCAzLjYtOCA4eiBtNzc0IDk2YzAgNC40LTMuNiA4LTggOEg0MjRjLTQuNCAwLTgtMy42LTgtOHYtNDhjMC00LjQgMy42LTggOC04aDM0MmM0LjQgMCA4IDMuNiA4IDh2NDh6IG0xMjIgMGMwIDQuNC0zLjYgOC04IDhoLTQ4Yy00LjQgMC04LTMuNi04LTh2LTQ4YzAtNC40IDMuNi04IDgtOGg0OGM0LjQgMCA4IDMuNiA4IDh2NDh6TTk2MCA5Nkg2NGMtMzUuMyAwLTY0IDI4LjctNjQgNjR2MTM2YzAgNC40IDMuNiA4IDggOGgxMDA4YzQuNCAwIDgtMy42IDgtOFYxNjBjMC0zNS4zLTI4LjctNjQtNjQtNjR6TTc3NCAyNDhjMCA0LjQtMy42IDgtOCA4SDQyNGMtNC40IDAtOC0zLjYtOC04di00OGMwLTQuNCAzLjYtOCA4LThoMzQyYzQuNCAwIDggMy42IDggOHY0OHogbTEyMiAwYzAgNC40LTMuNiA4LTggOGgtNDhjLTQuNCAwLTgtMy42LTgtOHYtNDhjMC00LjQgMy42LTggOC04aDQ4YzQuNCAwIDggMy42IDggOHY0OHoiLz48L3N2Zz4=" parent="1" vertex="1">
          <mxGeometry x="497.25" y="467.19" width="35" height="35" as="geometry" />
        </mxCell>
        <mxCell id="jsef9Xo3sPEI110m0m4C-1" value="" style="rounded=1;whiteSpace=wrap;html=1;strokeColor=none;fillColor=#E6D7C2;" parent="1" vertex="1">
          <mxGeometry x="115" y="399.69" width="333" height="105" as="geometry" />
        </mxCell>
        <mxCell id="jsef9Xo3sPEI110m0m4C-21" value="" style="shape=image;verticalLabelPosition=bottom;labelBackgroundColor=default;verticalAlign=top;aspect=fixed;imageAspect=0;image=data:image/svg+xml,PHN2ZyB4bWxuczp4bGluaz0iaHR0cDovL3d3dy53My5vcmcvMTk5OS94bGluayIgeG1sbnM9Imh0dHA6Ly93d3cudzMub3JnLzIwMDAvc3ZnIiBoZWlnaHQ9IjIwMCIgd2lkdGg9IjIwMCIgdmVyc2lvbj0iMS4xIiB2aWV3Qm94PSIwIDAgMTAyNCAxMDI0IiBjbGFzcz0iaWNvbiI+PHBhdGggZmlsbD0iIzUzNUU4MCIgZD0iTTk2MCAzMjBINjRjLTM1LjM0NiAwLTY0LTI4LjY1NC02NC02NFYxMjhjMC0zNS4zNDYgMjguNjU0LTY0IDY0LTY0aDg5NmMzNS4zNDYgMCA2NCAyOC42NTQgNjQgNjR2MTI4YzAgMzUuMzQ2LTI4LjY1NCA2NC02NCA2NHogbS05Ni0xNzZjLTI2LjUxIDAtNDggMjEuNDktNDggNDhzMjEuNDkgNDggNDggNDggNDgtMjEuNDkgNDgtNDgtMjEuNDktNDgtNDgtNDh6IG0tMTI4IDBjLTI2LjUxIDAtNDggMjEuNDktNDggNDhzMjEuNDkgNDggNDggNDggNDgtMjEuNDkgNDgtNDgtMjEuNDktNDgtNDgtNDh6IG0yMjQgNDk2SDY0Yy0zNS4zNDYgMC02NC0yOC42NTQtNjQtNjR2LTEyOGMwLTM1LjM0NiAyOC42NTQtNjQgNjQtNjRoODk2YzM1LjM0NiAwIDY0IDI4LjY1NCA2NCA2NHYxMjhjMCAzNS4zNDYtMjguNjU0IDY0LTY0IDY0eiBtLTk2LTE3NmMtMjYuNTEgMC00OCAyMS40OS00OCA0OHMyMS40OSA0OCA0OCA0OCA0OC0yMS40OSA0OC00OC0yMS40OS00OC00OC00OHogbS0xMjggMGMtMjYuNTEgMC00OCAyMS40OS00OCA0OHMyMS40OSA0OCA0OCA0OCA0OC0yMS40OSA0OC00OC0yMS40OS00OC00OC00OHogbTIyNCA0OTZINjRjLTM1LjM0NiAwLTY0LTI4LjY1NC02NC02NHYtMTI4YzAtMzUuMzQ2IDI4LjY1NC02NCA2NC02NGg4OTZjMzUuMzQ2IDAgNjQgMjguNjU0IDY0IDY0djEyOGMwIDM1LjM0Ni0yOC42NTQgNjQtNjQgNjR6IG0tOTYtMTc2Yy0yNi41MSAwLTQ4IDIxLjQ5LTQ4IDQ4czIxLjQ5IDQ4IDQ4IDQ4IDQ4LTIxLjQ5IDQ4LTQ4LTIxLjQ5LTQ4LTQ4LTQ4eiBtLTEyOCAwYy0yNi41MSAwLTQ4IDIxLjQ5LTQ4IDQ4czIxLjQ5IDQ4IDQ4IDQ4IDQ4LTIxLjQ5IDQ4LTQ4LTIxLjQ5LTQ4LTQ4LTQ4eiIvPjwvc3ZnPg==;" parent="1" vertex="1">
          <mxGeometry x="498.4" y="401.52" width="33.85" height="33.85" as="geometry" />
        </mxCell>
        <mxCell id="jsef9Xo3sPEI110m0m4C-22" value="" style="shape=image;verticalLabelPosition=bottom;verticalAlign=top;imageAspect=0;aspect=fixed;image=data:image/svg+xml,PHN2ZyB4bWxuczp4bGluaz0iaHR0cDovL3d3dy53My5vcmcvMTk5OS94bGluayIgeG1sbnM9Imh0dHA6Ly93d3cudzMub3JnLzIwMDAvc3ZnIiBoZWlnaHQ9IjIwMCIgd2lkdGg9IjIwMCIgdmVyc2lvbj0iMS4xIiB2aWV3Qm94PSIwIDAgMTAyNCAxMDI0IiBjbGFzcz0iaWNvbiI+PGRlZnM+PHN0eWxlIHR5cGU9InRleHQvY3NzIj5AZm9udC1mYWNlIHsgZm9udC1mYW1pbHk6IGZlZWRiYWNrLWljb25mb250OyBzcmM6IHVybCgiLy9hdC5hbGljZG4uY29tL3QvZm9udF8xMDMxMTU4X3U2OXc4eWh4ZHUud29mZjI/dD0xNjMwMDMzNzU5OTQ0IikgZm9ybWF0KCJ3b2ZmMiIpLCB1cmwoIi8vYXQuYWxpY2RuLmNvbS90L2ZvbnRfMTAzMTE1OF91Njl3OHloeGR1LndvZmY/dD0xNjMwMDMzNzU5OTQ0IikgZm9ybWF0KCJ3b2ZmIiksIHVybCgiLy9hdC5hbGljZG4uY29tL3QvZm9udF8xMDMxMTU4X3U2OXc4eWh4ZHUudHRmP3Q9MTYzMDAzMzc1OTk0NCIpIGZvcm1hdCgidHJ1ZXR5cGUiKTsgfSYjeGE7PC9zdHlsZT48L2RlZnM+PHBhdGggZmlsbD0iIzUzNUU4MCIgZD0iTTg5OS4wNzIgMTA4LjU0NGgtNzc0LjE0NEM4NS42MDY0IDEwOC41NDQgNTMuMjQ4IDE0MC45MDI0IDUzLjI0OCAxODAuMjI0djUyOC4zODRjMCAzOS4zMjE2IDMyLjM1ODQgNzEuNjggNzEuNjggNzEuNjhIMzM1Ljg3MnY3My43MjhIMjQ3LjgwOGMtMTYuNzkzNiAwLTMwLjcyIDEzLjkyNjQtMzAuNzIgMzAuNzJzMTMuOTI2NCAzMC43MiAzMC43MiAzMC43Mmg1MjguMzg0YzE2Ljc5MzYgMCAzMC43Mi0xMy45MjY0IDMwLjcyLTMwLjcycy0xMy45MjY0LTMwLjcyLTMwLjcyLTMwLjcySDY4OC4xMjh2LTczLjcyOGgyMTAuOTQ0YzM5LjMyMTYgMCA3MS42OC0zMi4zNTg0IDcxLjY4LTcxLjY4VjE4MC4yMjRjMC0zOS4zMjE2LTMyLjM1ODQtNzEuNjgtNzEuNjgtNzEuNjh6IG0tNzc0LjE0NCA2MS40NGg3NzQuMTQ0YzUuNzM0NCAwIDEwLjI0IDQuNTA1NiAxMC4yNCAxMC4yNHYzNTQuMzA0SDExNC42ODhWMTgwLjIyNGMwLTUuNzM0NCA0LjUwNTYtMTAuMjQgMTAuMjQtMTAuMjR6IG01MDEuNzYgNjg0LjAzMkgzOTcuMzEydi03My43MjhoMjI5LjM3NnY3My43Mjh6IG0yODIuNjI0LTE0NS40MDhjMCA1LjczNDQtNC41MDU2IDEwLjI0LTEwLjI0IDEwLjI0aC03NzQuMTQ0Yy01LjczNDQgMC0xMC4yNC00LjUwNTYtMTAuMjQtMTAuMjR2LTExMi42NGg3OTQuNjI0VjcwOC42MDh6Ii8+PC9zdmc+;dashed=1;fillColor=none;" parent="1" vertex="1">
          <mxGeometry x="25" y="397" width="44.25" height="44.25" as="geometry" />
        </mxCell>
        <mxCell id="jsef9Xo3sPEI110m0m4C-24" value="" style="shape=flexArrow;endArrow=classic;html=1;rounded=0;strokeColor=none;fillColor=#FDD276;width=8.070175438596491;endSize=3.5508771929824556;endWidth=11.905201600492457;" parent="1" edge="1">
          <mxGeometry width="50" height="50" relative="1" as="geometry">
            <mxPoint x="75.25" y="484.50999999999993" as="sourcePoint" />
            <mxPoint x="105.25" y="484.94" as="targetPoint" />
          </mxGeometry>
        </mxCell>
        <mxCell id="jsef9Xo3sPEI110m0m4C-28" value="" style="shape=flexArrow;endArrow=classic;html=1;rounded=0;strokeColor=none;fillColor=#FDD276;width=8.070175438596491;endSize=3.5508771929824556;endWidth=11.905201600492457;" parent="1" edge="1">
          <mxGeometry width="50" height="50" relative="1" as="geometry">
            <mxPoint x="104.24999999999983" y="419.22999999999996" as="sourcePoint" />
            <mxPoint x="74.24999999999983" y="419.66" as="targetPoint" />
          </mxGeometry>
        </mxCell>
        <mxCell id="jsef9Xo3sPEI110m0m4C-29" value="" style="shape=flexArrow;endArrow=classic;html=1;rounded=0;strokeColor=none;fillColor=#FDD276;width=8.070175438596491;endSize=3.5508771929824556;endWidth=11.905201600492457;" parent="1" edge="1">
          <mxGeometry width="50" height="50" relative="1" as="geometry">
            <mxPoint x="456.25" y="483.25999999999993" as="sourcePoint" />
            <mxPoint x="486.25" y="483.69" as="targetPoint" />
          </mxGeometry>
        </mxCell>
        <mxCell id="jsef9Xo3sPEI110m0m4C-30" value="" style="shape=flexArrow;endArrow=classic;html=1;rounded=0;strokeColor=none;fillColor=#FDD276;width=8.070175438596491;endSize=3.5508771929824556;endWidth=11.905201600492457;" parent="1" edge="1">
          <mxGeometry width="50" height="50" relative="1" as="geometry">
            <mxPoint x="485.2500000000001" y="416.97999999999996" as="sourcePoint" />
            <mxPoint x="455.2500000000001" y="417.41" as="targetPoint" />
          </mxGeometry>
        </mxCell>
        <mxCell id="N1RMKMh5gHixkr7Ac_zt-1" value="&lt;font color=&quot;#ffffff&quot;&gt;TCP拥塞控制后的流量&lt;/font&gt;" style="rounded=1;whiteSpace=wrap;html=1;fillColor=#535f80;strokeColor=none;" parent="1" vertex="1">
          <mxGeometry x="122.75" y="405.69" width="315" height="21" as="geometry" />
        </mxCell>
        <mxCell id="N1RMKMh5gHixkr7Ac_zt-6" value="&lt;font color=&quot;#ffffff&quot;&gt;关掉拥塞控制的KCP流量&lt;/font&gt;" style="rounded=1;whiteSpace=wrap;html=1;fillColor=#4A919B;strokeColor=none;" parent="1" vertex="1">
          <mxGeometry x="122.75" y="429" width="315" height="68.94" as="geometry" />
        </mxCell>
        <mxCell id="N1RMKMh5gHixkr7Ac_zt-7" value="&lt;font color=&quot;#535f80&quot;&gt;&lt;span style=&quot;font-size: 11px;&quot;&gt;他人&lt;/span&gt;&lt;/font&gt;" style="text;html=1;strokeColor=none;fillColor=none;align=center;verticalAlign=middle;whiteSpace=wrap;rounded=0;" parent="1" vertex="1">
          <mxGeometry x="17" y="397.94" width="60" height="30" as="geometry" />
        </mxCell>
        <mxCell id="N1RMKMh5gHixkr7Ac_zt-8" value="&lt;font color=&quot;#4a919b&quot; style=&quot;font-size: 11px;&quot;&gt;你&lt;/font&gt;" style="text;html=1;strokeColor=none;fillColor=none;align=center;verticalAlign=middle;whiteSpace=wrap;rounded=0;" parent="1" vertex="1">
          <mxGeometry x="17.119999999999997" y="463.69" width="60" height="30" as="geometry" />
        </mxCell>
      </root>
    </mxGraphModel>
  </diagram>
</mxfile>
